<?xml version="1.0" encoding="utf-8"?>
<!-- Generator: Adobe Illustrator 24.3.0, SVG Export Plug-In . SVG Version: 6.00 Build 0)  -->
<svg version="1.1" id="_x2014_ÎÓÈ_x5F_1" xmlns="http://www.w3.org/2000/svg" xmlns:xlink="http://www.w3.org/1999/xlink"
	 x="0px" y="0px" viewBox="0 0 145 145" style="enable-background:new 0 0 145 145;" xml:space="preserve">
<style type="text/css">
	.st0{fill:#C9BEAC;}
	.st1{fill:#FBFBFB;}
	.st2{fill:#2C0218;}
	.st3{fill:#C2AE90;}
	.st4{fill:#AD987B;}
	.st5{fill:#FFFFFF;}
	.st6{fill:#F2F2F2;}
	.st7{fill:#FFFFFF;stroke:#2C0218;stroke-width:5;stroke-linecap:round;stroke-linejoin:round;stroke-miterlimit:10;}
</style>
<g>
	<g>
		<path class="st0" d="M31.7,79.5c0,27.8,17.5,51.5,41.7,50.3c23-1.1,43.1-22.7,41-50.4c-2.3-29.7-19.6-50.2-41-50.3
			C53,29.1,31.7,55.5,31.7,79.5z"/>
		<path class="st1" d="M38.5,80.6c8.4,50.7,75.8,52.2,75.9-1.2c0.1-29.8-19.6-50.2-41-50.3C53,29.1,34,53.7,38.5,80.6z"/>
		<path class="st2" d="M30.9,79.5c0-24.8,21.8-51.1,42.3-51.1h0.1c10.7,0,20.7,5.1,28.3,14.3C109.2,52,114,65,115.2,79.4
			c1.1,13.6-3.1,26.5-11.8,36.4c-7.8,8.9-18.8,14.3-29.9,14.9c-0.6,0-1.2,0-1.8,0C48.8,130.7,30.9,108.2,30.9,79.5z M45.5,45.9
			c-8.1,9.9-13,22.5-13,33.6c0,27.8,17.2,49.6,39.1,49.6c0.6,0,1.1,0,1.7,0c10.8-0.5,21.3-5.8,28.8-14.3c8.4-9.5,12.4-22,11.4-35.2
			C111.3,50.5,94.8,30.1,73.4,30h-0.1C63.9,30,53.8,35.8,45.5,45.9z"/>
		<g>
			<path class="st3" d="M61.1,54.9c0,2.8,1.8,5.1,3.9,5.1c2.2,0,3.9-2.3,3.9-5.1s-1.8-5.1-3.9-5.1C62.9,49.8,61.1,52.1,61.1,54.9z"
				/>
		</g>
		<g>
			<path class="st3" d="M41.8,76.4c0,5.1,2.7,9.3,5.9,9.3c3.3,0,5.9-4.2,5.9-9.3c0-5.1-2.7-9.3-5.9-9.3
				C44.4,67.1,41.8,71.2,41.8,76.4z"/>
		</g>
		<g>
			<path class="st3" d="M89.8,53.3c1.2,2.8,3.3,4.5,4.8,3.9c1.5-0.6,1.7-3.3,0.5-6.1c-1.2-2.8-3.3-4.5-4.8-3.9
				C88.8,47.8,88.6,50.5,89.8,53.3z"/>
		</g>
		<g>
			<path class="st3" d="M102.1,79.3c1.2,2.8,3.3,4.5,4.8,3.9c1.4-0.6,1.7-3.4,0.5-6.1c-1.2-2.8-3.3-4.5-4.8-3.9
				C101.2,73.8,101,76.5,102.1,79.3z"/>
		</g>
		<g>
			<path class="st3" d="M74.6,89c0.4,4.6,2.9,8.2,5.7,7.9c2.8-0.2,4.8-4.1,4.4-8.7c-0.4-4.6-2.9-8.2-5.7-7.9
				C76.2,80.4,74.2,84.4,74.6,89z"/>
		</g>
		<g>
			<path class="st3" d="M87.3,109.5c-0.8,3.3,0.3,6.4,2.5,6.9c2.2,0.5,4.6-1.7,5.3-5c0.8-3.3-0.3-6.4-2.5-6.9
				C90.4,103.9,88,106.2,87.3,109.5z"/>
		</g>
		<g>
			<path class="st4" d="M49.6,109.1c0.3,3.4,2.3,5.9,4.5,5.8c2.2-0.2,3.8-3.1,3.5-6.4c-0.3-3.4-2.3-5.9-4.5-5.8
				S49.3,105.7,49.6,109.1z"/>
		</g>
		<g>
			<path class="st3" d="M50,105.7c0.6-1.8,1.7-3,3.2-3.1c2.2-0.2,4.2,2.4,4.5,5.8c0.1,1.4-0.1,2.7-0.5,3.8
				C54.3,110.4,52.1,108.2,50,105.7z"/>
		</g>
	</g>
	<g>
		<g>
			<g>
				<path class="st5" d="M39.2,103.1c-0.2,0-0.3-0.1-0.4-0.2c-0.5-0.9-0.9-1.9-1.1-2.8c-0.1-0.2,0-0.4,0.3-0.5c0.1,0,0.1,0,0.2,0
					c0.2,0,0.3,0.1,0.4,0.2l0.1,0.2c0.2,0.3,0.4,0.6,0.5,0.9c0,0,0,0.1,0,0.1c0.2,0.6,0.3,1.1,0.4,1.6c0,0.2-0.1,0.4-0.3,0.5
					C39.3,103,39.3,103.1,39.2,103.1z"/>
				<path class="st2" d="M38.2,99.9c0.2,0.4,0.5,0.8,0.7,1.2c0.2,0.5,0.3,1,0.4,1.6C38.8,101.7,38.4,100.8,38.2,99.9 M38.2,99
					c-0.1,0-0.2,0-0.3,0.1c-0.4,0.2-0.6,0.6-0.5,1.1c0.3,1,0.6,1.9,1.2,2.9c0.2,0.3,0.5,0.5,0.8,0.5c0.1,0,0.2,0,0.3-0.1
					c0.4-0.2,0.7-0.6,0.6-1c-0.1-0.5-0.3-1.1-0.4-1.7c0-0.1,0-0.1-0.1-0.2c-0.2-0.3-0.4-0.6-0.5-0.9l-0.1-0.2
					C38.8,99.2,38.5,99,38.2,99L38.2,99z"/>
			</g>
			<g>
				<path class="st5" d="M43.6,119.5c-0.5,0-0.9,0-1.2-0.1c-0.8-0.1-1.1-0.2-1.3-0.2c-0.1,0-0.2,0-0.4,0c-0.2,0-0.6,0.1-1.2,0.1
					c-0.1,0-0.2,0-0.3,0c-1.3,0-3-0.5-4.3-0.8c-0.5-0.2-1-0.3-1.4-0.4c-0.1,0-0.4-0.1-0.5-0.1c0,0,0,0-0.1,0c-0.2,0-0.3,0.1-0.8,0.1
					c-0.2,0-0.5,0-0.7,0c-0.7,0-1.3-0.2-1.9-0.5c-0.3-0.1-0.5-0.2-0.8-0.3c-0.5-0.2-1-0.3-1.3-0.7c-0.4-0.4-3.8-0.8-5.1-0.9
					c-0.5-0.1-0.9-0.1-1.2-0.1c-0.4-0.1-0.8-0.1-0.8-0.5c0-0.1,0.1-0.4,0.4-0.5c0.1,0,0.2,0,0.4,0c0.8,0,2.5,0.1,4.3,0.3
					c1.7,0.1,3.4,0.3,4.1,0.3c0.1,0,0.2,0,0.2,0c0.1,0,0.2,0,0.4,0c0.3,0,0.8,0,1.2,0.1c0.5,0,1,0.1,1.4,0.1c0.2,0,0.4,0,0.5,0
					c0,0,0,0,0,0c-0.2-0.2-0.5-0.3-0.5-0.6c-0.1,0-0.2,0-0.5,0c-0.2,0-0.5,0-0.8,0c-0.4,0-0.8,0-1.3,0c-1.4,0-2.7-0.2-3.9-0.5
					c-0.5-0.1-1.4-0.5-2.6-1c-0.2,0.1-0.5,0.1-0.8,0.1c-0.4,0-0.9,0-1.5-0.1c-3.5-0.4-4.3-1.4-4.7-1.8c0,0-0.1-0.1-0.1-0.1
					c-0.2,0-0.6,0-1.1,0c-1.2,0-3,0.1-4.5,0.1c-2,0-2.5-0.1-2.8-0.2c-0.5-0.2-1.7-0.2-3.1-0.3c-0.8,0-1.6-0.1-2.4-0.1
					c-1.5-0.1-2.2-0.4-2.2-1c0-0.3,0.3-0.7,1-0.7c0.1,0,0.1,0,0.2,0c0.1,0,0.2,0,0.3,0c1.2,0,3.2-0.3,3.8-0.5
					c0.2-0.1,0.4-0.1,0.7-0.2c-1.4,0-1.8-0.1-1.9-0.4c-0.1-0.2-0.1-0.3,0-0.5c0.2-0.3,0.5-0.3,1.6-0.3c0.4,0,0.9,0,1.4,0
					c0.6,0,1.1,0,1.7,0c0.7,0,1.2,0,1.6-0.1c1.4-0.2,1.6-0.9,1.7-1.2l0,0c-0.2-0.4-0.7-1.4,0.3-3.3c0.8-1.5,1.6-2.5,2-3.1
					c-0.7-0.3-1.9-0.9-3.1-1.7c-2.5-1.6-3.8-3.1-3.9-4.5c-0.1-2.1,1-3.2,1.7-3.7C9,89.4,8.3,88.5,8,87c-0.5-2.9,1-6.7,4.7-8
					c2.3-0.8,4.5-1.3,6.8-1.3c2.5,0,4.8,0.6,6.1,1.5c0.1,0,0.2,0,0.4,0c1.3,0,2.3,0.3,2.9,0.9c0.8,0.8,0.8,1.9,0.8,2.8
					c0,0.2,0,0.3,0,0.5c0.4,0.4,0.7,1.2,0.2,2.6c-0.1,0.2-0.1,0.4-0.2,0.5c0.5-0.2,1.1-0.5,1.9-0.5c0.2,0,0.4,0.2,0.4,0.4
					c0,0,0,0,0,0c0.4,2.7,1,5.3,1.6,7.8c0,0.2,0,0.3-0.1,0.4c-0.2,0.2-0.4,0.4-0.6,0.5c-0.2,0.2-0.2,0.5-0.1,0.7
					c0.1,0.4,0.5,0.9,1.2,0.9c0.2,0,0.3,0.1,0.4,0.3c1.1,3.8,2.4,7.3,3.9,10.5c0,0,0,0.1,0.1,0.1c0.1,0.1,0.1,0.2,0.1,0.3
					c0,0.1-0.1,0.2-0.2,0.3c-0.6,0.4-1,1-1,1.2c0,0.1,0.2,0.2,0.5,0.3c0,0,0,0,0,0c0.1,0,0.3-0.2,0.5-0.3c0.5-0.3,1.1-0.7,2.1-0.7
					c0.7,0,1.4,0.2,2.2,0.6c0.7,0.3,1.1,0.9,1.2,1.6c0.3-0.2,0.6-0.3,1-0.3c0.6,0,1.2,0.3,1.8,0.8c0.4,0.3,0.5,0.6,0.6,0.9
					c0,0.5-0.3,0.9-0.5,1.2c-0.1,0.1-0.2,0.3-0.3,0.3c0.1,0.2,0.9,0.7,5.2,1.4c0.8,0.1,1.4,0.2,2.1,0.2c1,0,2-0.1,3.6-0.3l0.8-0.1
					c0.3,0,0.5,0,0.8,0c2.2,0,4.1,0.8,5.3,1.3c0.5,0.2,0.9,0.4,1.1,0.4c0.2,0,0.9,0,1.2,0c0.6,0,1.4,0,2.3,0c1.1,0,2.2,0,3.3,0
					c3.4,0,4.1,0.1,4.3,0.1c0.4,0.1,0.4,0.4,0.4,0.5c0,0.4-0.5,0.5-1.4,0.6c-0.6,0.1-1.3,0.1-2.2,0.2c-1.2,0.1-2.7,0.2-3.1,0.3
					c-1.2,0.2-8.5,0.4-10.6,0.4l0,0c-0.1,0-0.2,0-0.3,0c-1.6,0-8.7-0.3-9.4-0.3C49.2,119,45.8,119.5,43.6,119.5z"/>
				<path class="st2" d="M19.5,78.2c2.8,0,4.9,0.7,5.9,1.5c0.2,0,0.3,0,0.5,0c3.8,0,3.1,2.6,3.2,4c1.2,1.1-0.6,3.8-0.6,3.8
					c0,0,0.1,0,0.1,0c0.6,0,1.5-0.9,2.7-0.9c0,0,0,0,0,0v0c0.4,2.6,0.9,5.2,1.6,7.8c-0.2,0.2-0.4,0.3-0.6,0.5
					c-0.7,0.6-0.1,2.3,1.3,2.4c1,3.6,2.3,7.2,3.9,10.6c0,0.1,0.1,0.1,0.1,0.2c-0.4,0.3-2.2,1.7-0.4,2.3c0,0,0.1,0,0.2,0
					c0.6,0,1.2-1,2.6-1c0.5,0,1.2,0.2,2,0.6c1.5,0.8,0.8,2.4,0.8,2.4s0.6-1,1.7-1c0.4,0,1,0.2,1.5,0.7c2.1,1.7-4.8,2.3,5.2,4
					c0.8,0.1,1.5,0.2,2.2,0.2c1.1,0,2.4-0.2,4.4-0.4c0.3,0,0.5,0,0.8,0c3,0,5.6,1.7,6.4,1.8c0.2,0,0.6,0,1.2,0c1.3,0,3.6,0,5.6,0
					c2.1,0,3.9,0,4.2,0.1c0.8,0.2-5.1,0.5-6.2,0.8c-1.1,0.2-8.3,0.4-10.5,0.4c-0.1,0-0.2,0-0.3,0c-1.6,0-9.5-0.3-9.5-0.3
					s-3.7,0.6-6,0.6c-0.4,0-0.8,0-1.1-0.1c-0.8-0.1-1.1-0.2-1.4-0.2c-0.4,0-0.6,0.1-1.6,0.1c-0.1,0-0.2,0-0.2,0
					c-1.8,0-4.4-0.9-5.6-1.2c-0.4-0.1-0.5-0.1-0.6-0.1c-0.2,0-0.2,0.1-0.9,0.1c-0.2,0-0.4,0-0.7,0c-0.7,0-1.3-0.2-1.8-0.4
					c-0.8-0.4-1.5-0.4-1.9-0.8c-0.7-0.8-7.6-1.2-6.9-1.3c0.1,0,0.2,0,0.3,0c1.5,0,6.9,0.6,8.4,0.6c0.1,0,0.2,0,0.2,0
					c0.1,0,0.2,0,0.3,0c0.7,0,1.8,0.1,2.6,0.1c0.6,0,1.1-0.1,1.2-0.3c0.1-0.3-0.8-0.7-0.8-0.9c0-0.2-0.3-0.3-0.9-0.3
					c-0.5,0-1.2,0.1-2,0.1c-1.1,0-2.4-0.1-3.8-0.4c-0.7-0.2-1.9-0.7-2.9-1.2c0.1,0.1,0,0.2-0.6,0.2c-0.3,0-0.8,0-1.5-0.1
					c-4.5-0.5-4.2-1.9-4.8-1.9c0,0,0,0,0,0c-0.5,0-3.4,0.1-5.6,0.1c-1.3,0-2.3,0-2.6-0.1c-0.8-0.3-3.4-0.2-5.7-0.4
					c-2.1-0.2-2.1-0.8-1.2-0.8c0,0,0.1,0,0.1,0c0.1,0,0.2,0,0.4,0c1.2,0,3.3-0.3,4-0.6c0.7-0.3,4.8-0.5,4.7-0.8
					c-0.1-0.4-5.5,0-5.7-0.4c-0.1-0.1,0.4-0.2,1.2-0.2c0.8,0,2,0.1,3,0.1c0.6,0,1.2,0,1.7-0.1c1.9-0.2,2.1-1.4,2.1-1.6
					c0.1-0.2-0.9-0.9,0.2-3.1c1.1-2.2,2.4-3.5,2.4-3.5s-7.1-3.1-7.2-6c-0.1-2.9,2.1-3.6,2.1-3.6s-1.6-1-1.9-3.1
					c-0.4-2.4,0.7-6.2,4.4-7.6C15.3,78.5,17.5,78.2,19.5,78.2 M19.5,77.3L19.5,77.3c-2.3,0-4.6,0.4-6.9,1.3c-1.9,0.7-3.4,2-4.2,3.8
					c-0.7,1.5-1,3.2-0.7,4.7c0.2,1.2,0.8,2.1,1.3,2.7c-0.8,0.7-1.5,1.9-1.5,3.7c0.1,1.6,1.4,3.1,4.1,4.8c1,0.6,1.9,1.1,2.6,1.5
					c-0.5,0.6-1.1,1.6-1.7,2.8c-1,1.8-0.6,3-0.4,3.5c-0.1,0.3-0.4,0.6-1.3,0.7c-0.4,0-0.9,0.1-1.6,0.1c-0.5,0-1.1,0-1.7,0
					c-0.5,0-1,0-1.4,0c-1,0-1.6,0-1.9,0.6c-0.2,0.3-0.2,0.6,0,0.9c0.1,0.1,0.1,0.2,0.2,0.3c-0.8,0.1-1.7,0.2-2.4,0.2
					c-0.1,0-0.2,0-0.3,0c-0.1,0-0.1,0-0.2,0c-1,0-1.4,0.6-1.5,1.1c0,1.3,1.9,1.4,2.6,1.4c0.8,0.1,1.7,0.1,2.5,0.1
					c1.2,0,2.6,0.1,3,0.2c0.3,0.1,0.7,0.2,2.9,0.2c1.5,0,3.3-0.1,4.5-0.1c0.4,0,0.7,0,0.9,0c0.7,0.8,1.8,1.6,5,1.9
					c0.7,0.1,1.2,0.1,1.6,0.1c0.2,0,0.5,0,0.8-0.1c0.8,0.4,1.5,0.6,2,0.8c0,0-0.1,0-0.2,0c-1.8-0.2-3.5-0.3-4.3-0.3
					c-0.2,0-0.4,0-0.5,0c-0.5,0.1-0.8,0.6-0.8,0.9c0,0.2,0.1,0.7,0.8,0.9c0.1,0,0.2,0,0.4,0.1c0.3,0,0.7,0.1,1.2,0.1
					c1.2,0.1,4.2,0.5,4.8,0.8c0.4,0.4,0.9,0.6,1.5,0.8c0.2,0.1,0.5,0.2,0.7,0.3c0.7,0.3,1.3,0.4,2.1,0.5c0.3,0,0.5,0,0.8,0
					c0.5,0,0.7-0.1,0.9-0.1c0,0,0.2,0,0.4,0.1c0.3,0.1,0.8,0.2,1.3,0.3c1.4,0.4,3.1,0.9,4.4,0.9c0.1,0,0.2,0,0.3,0
					c0.6,0,1-0.1,1.2-0.1c0.2,0,0.3,0,0.4,0c0.2,0,0.5,0,1.2,0.2c0.3,0.1,0.7,0.1,1.2,0.1c2.2,0,5.5-0.5,6.1-0.6
					c0.9,0,7.8,0.3,9.4,0.3c0.1,0,0.2,0,0.4,0c1.8,0,9.4-0.1,10.7-0.4c0.4-0.1,1.8-0.2,3.1-0.3c0.8-0.1,1.6-0.1,2.2-0.2
					c0.3,0,0.6-0.1,0.8-0.1c0.6-0.1,1-0.4,1-0.9c0-0.4-0.2-0.8-0.7-1c-0.3-0.1-0.8-0.1-4.5-0.1c-1.1,0-2.3,0-3.3,0
					c-0.9,0-1.7,0-2.3,0c-0.8,0-1,0-1.1,0c-0.2,0-0.6-0.2-1-0.4c-1.3-0.6-3.3-1.4-5.5-1.4c-0.3,0-0.6,0-0.9,0
					c-0.3,0-0.6,0.1-0.8,0.1c-1.6,0.2-2.6,0.3-3.5,0.3c-0.7,0-1.3-0.1-2-0.2c-3-0.5-4.2-0.9-4.7-1.1c0.3-0.3,0.6-0.8,0.6-1.4
					c0-0.5-0.3-0.9-0.7-1.2c-0.7-0.6-1.4-0.9-2.1-0.9c-0.2,0-0.5,0-0.7,0.1c-0.2-0.6-0.6-1.1-1.3-1.4c-0.9-0.4-1.7-0.7-2.4-0.7
					c-1.1,0-1.8,0.5-2.3,0.8c-0.1,0.1-0.2,0.1-0.3,0.2h0c0.1-0.2,0.4-0.5,0.8-0.7c0.2-0.1,0.3-0.4,0.3-0.6s0-0.5-0.2-0.7
					c0,0,0,0,0,0c-1.5-3.2-2.8-6.7-3.8-10.5c-0.1-0.4-0.4-0.6-0.8-0.6c-0.4,0-0.7-0.3-0.7-0.5C33,95.6,33,95.5,33,95.4
					c0.2-0.2,0.4-0.4,0.6-0.6c0.2-0.2,0.3-0.5,0.2-0.8c-0.6-2.4-1.1-5-1.5-7.7c0,0,0,0,0,0c-0.1-0.4-0.4-0.8-0.9-0.8
					c-0.4,0-0.8,0.1-1.1,0.2c0.2-0.8,0.3-1.8-0.3-2.5c0-0.1,0-0.2,0-0.3c0-0.9,0-2.2-0.9-3.1c-0.7-0.7-1.7-1-3.2-1
					c-0.1,0-0.1,0-0.2,0C24.3,77.8,22,77.3,19.5,77.3L19.5,77.3L19.5,77.3z"/>
			</g>
			<g>
				<path class="st5" d="M28.6,103.1c0,0-0.1,0-0.2,0c-0.6-0.1-2.1-0.7-3.9-1.4c-0.4-0.2-0.9-0.3-1.1-0.4c-0.1,0-0.1,0-0.2,0
					c-0.3,0-0.5-0.1-1.8-1.7c-0.9-1.1-2.2-1.6-2.5-1.8c-0.3,0-1.3-0.1-1.7-0.6c-0.1-0.2-0.2-0.3-0.2-0.5c-0.4-0.4-2.7-1.7-3.8-2.3
					c-0.5-0.3-0.9-0.5-1.3-0.7c-0.5-0.3-0.8-0.5-0.7-0.8c0-0.2,0.2-0.3,0.5-0.3c0.1,0,0.2,0,0.4,0.1c0.9,0.3,2,0.7,3.1,1.2
					c1.2,0.5,2.4,1,3.4,1.3c0.1,0,0.2,0.1,0.2,0.2c0,0,0.1,0,0.3,0c0.3,0,0.6,0,1-0.1c0.5-0.1,1-0.1,1.5-0.1c0.4,0,1.8,0,2.3,1.1
					c0.6,1.4,0.9,2.5,1,2.9c0.5,0.4,1.5,1.2,1.7,1.8c0.2,0.2,1.1,0.7,1.5,0.9c0.8,0.4,1,0.5,1,0.9C29.1,102.9,29,103.1,28.6,103.1z"
					/>
				<path class="st2" d="M11.7,93c0,0,0.1,0,0.2,0.1c1.8,0.5,4.4,1.8,6.6,2.5c0.1,0.2,0.3,0.2,0.6,0.2c0.6,0,1.6-0.2,2.5-0.2
					c0.8,0,1.6,0.2,1.9,0.8c0.7,1.7,1,3,1,3s1.5,1.1,1.7,1.7c0.1,0.6,3,1.5,2.4,1.5c0,0-0.1,0-0.1,0c-0.9-0.1-4.9-1.8-5.1-1.8l0,0
					c-0.1,0-0.1,0.1-0.1,0.1c-0.1,0-0.4-0.2-1.5-1.5c-1.1-1.3-2.7-1.9-2.7-1.9s-1.7-0.1-1.6-0.8C17.6,96,11.2,93,11.7,93 M11.7,92.1
					L11.7,92.1c-0.4,0-0.8,0.3-0.9,0.7c-0.2,0.7,0.4,1,0.9,1.3c0.3,0.2,0.8,0.4,1.3,0.7c1,0.6,3.1,1.7,3.6,2.1
					c0,0.2,0.1,0.4,0.3,0.6c0.5,0.6,1.4,0.7,2,0.8c0.4,0.2,1.5,0.7,2.3,1.6c1.4,1.6,1.6,1.8,2.1,1.8c0,0,0.1,0,0.2,0
					c0.2,0.1,0.6,0.2,0.9,0.4c1.9,0.8,3.3,1.3,4,1.4c0.1,0,0.1,0,0.2,0c0.5,0,0.9-0.4,0.9-0.7c0.1-0.5-0.1-0.8-0.6-1.1
					c-0.1-0.1-0.3-0.2-0.5-0.3c-0.3-0.2-1.1-0.5-1.4-0.7c-0.2-0.6-1-1.3-1.7-1.9c-0.1-0.5-0.5-1.6-1-2.8c-0.4-0.9-1.3-1.3-2.7-1.3
					c-0.5,0-1.1,0.1-1.5,0.1c-0.4,0-0.7,0.1-0.9,0.1c0,0,0,0-0.1,0c-0.1-0.1-0.2-0.1-0.3-0.2c-1.1-0.3-2.2-0.8-3.4-1.3
					c-1.1-0.5-2.2-0.9-3.2-1.2C12,92.2,11.9,92.1,11.7,92.1L11.7,92.1z"/>
			</g>
			<g>
				<path class="st5" d="M24.4,91.4c-0.1,0-0.2-0.1-0.3-0.1c-0.4-0.3-0.7-0.6-1.1-1s-0.8-0.8-1.2-1.1c0,0-0.1-0.1-0.1-0.1
					c0,0-0.1,0-0.3-0.1l-0.3-0.1c-0.5-0.1-1.4-0.3-1.5-1.2c0-0.6,0-1.2,0-1.4c-0.2-0.3-0.4-0.8-0.4-1.1c-0.1-0.1-0.3-0.4-0.4-0.5
					c-0.3-0.3-0.5-0.5-0.3-0.8c0.1-0.2,0.3-0.3,0.5-0.2c0,0,0.1,0,0.1,0.1c0.3,0.1,0.8,0.6,1.5,1.2c0.1,0.1,0.2,0.2,0.3,0.3
					c0,0,0,0,0,0c0.3,0.1,0.4,0.3,0.7,1.2c0.2,0.5,0.5,0.9,0.7,1c0.2,0.1,0.6,0.3,0.7,0.6c0,0.1,0.1,0.2,0,0.3
					c0.2,0.3,0.8,1.1,1.2,1.5c0.7,0.8,0.8,0.9,0.6,1.2C24.8,91.3,24.6,91.4,24.4,91.4z"/>
				<path class="st2" d="M19,84.1C19,84.1,19,84.1,19,84.1c0.4,0.2,1.8,1.6,1.9,1.6c0,0,0,0,0,0c0,0,0,0,0.1,0c0,0,0.1,0.1,0.4,0.9
					c0.3,0.7,0.8,1.3,0.8,1.3s0.7,0.3,0.5,0.6c-0.1,0.3,2,2.6,1.8,2.5c0,0,0,0-0.1-0.1c-0.7-0.5-1.6-1.5-2.4-2.1
					c0-0.1-0.2-0.2-0.5-0.3c-0.1,0-0.2,0-0.3-0.1c-0.5-0.1-1.1-0.3-1.1-0.8c0-0.9,0-1.5,0-1.5s-0.5-0.7-0.4-1
					C19.8,84.9,18.8,84,19,84.1 M19.2,83.2c-0.4-0.1-0.8,0.1-1,0.4c-0.1,0.2-0.3,0.6,0.2,1.1c0.1,0.1,0.1,0.1,0.2,0.2
					c0.1,0.1,0.2,0.2,0.3,0.4c0,0.2,0.1,0.6,0.4,1c0,0.3,0,0.8,0,1.3c0,1.2,1.3,1.5,1.8,1.6c0,0,0.1,0,0.1,0l0.1,0c0,0,0.1,0,0.1,0
					c0,0,0.1,0.1,0.1,0.1c0.4,0.3,0.8,0.7,1.2,1.1c0.4,0.4,0.8,0.8,1.2,1.1c0.1,0.1,0.2,0.2,0.4,0.2c0.4,0.1,0.8-0.1,1-0.4
					c0.3-0.6,0-1-0.2-1.2c-0.1-0.1-0.3-0.3-0.4-0.5c-0.3-0.3-0.8-1-1-1.3c0-0.1,0-0.3-0.1-0.4c-0.2-0.4-0.6-0.7-0.9-0.8
					c-0.1-0.1-0.4-0.4-0.5-0.8c-0.3-0.9-0.4-1.3-0.9-1.4c-0.1-0.1-0.2-0.2-0.2-0.2c-0.8-0.8-1.3-1.2-1.6-1.3
					C19.4,83.3,19.3,83.2,19.2,83.2L19.2,83.2z"/>
			</g>
			<g>
				<path class="st5" d="M38.8,88c-0.1,0-0.2-0.1-0.4-0.2c-0.9-0.4-1.1-1.6-1-2.2c0-0.5,0.1-1.3,0-1.5c0-0.1-0.2-0.1-0.3-0.2
					c-0.2-0.1-0.5-0.2-0.5-0.6c-0.2-0.2-0.8-0.5-1.3-0.8c-0.9-0.5-1.5-0.8-1.7-1.2c-0.2-0.3-0.2-0.6-0.1-0.9
					c0.1-0.2,0.3-0.4,0.5-0.4c0,0,0.1,0,0.1,0c0,0,0,0,0,0c0.4,0,0.5,0.4,0.5,0.5c0.1,0.2,0.2,0.5,1.1,0.7c0.7,0.1,0.9,0.3,1.3,0.7
					l0.1,0.1c0.1,0.1,0.2,0.1,0.5,0.1h0c0.2,0,0.6,0,0.9,0.1c0.5,0.1,0.8,0.4,1,0.9c0.3,0.9-0.3,2.2-0.7,2.6c0,0.1,0,0.3-0.1,0.4
					c0,0.1,0,0.2,0,0.2c0,0.3,0.2,0.6,0.3,0.7c0.1,0.1,0.2,0.3,0.1,0.6C39.1,87.9,39,88,38.8,88z"/>
				<path class="st2" d="M34,80.5c0.3,0-0.2,1,1.6,1.2c0.7,0.1,0.8,0.3,1.1,0.7c0.2,0.2,0.5,0.2,0.9,0.2c0,0,0,0,0,0
					c0.2,0,0.5,0,0.8,0.1c1.3,0.3,0.5,2.3,0,2.8c-0.2,0.2-0.2,0.7-0.2,0.9c-0.1,0.7,0.6,1.1,0.5,1.1c0,0-0.1,0-0.2-0.1
					c-0.7-0.3-0.8-1.3-0.8-1.8c0-0.2,0.1-1.4,0-1.8c-0.2-0.4-0.8-0.4-0.8-0.7c0-0.5-2.7-1.5-3-2.1C33.6,80.7,34,80.5,34,80.5
					 M34,79.6c-0.1,0-0.2,0-0.2,0c-0.1,0-0.6,0.2-0.8,0.7c-0.1,0.3-0.2,0.7,0.1,1.2c0.3,0.5,0.8,0.8,1.8,1.3
					c0.3,0.2,0.9,0.5,1.1,0.6c0.2,0.4,0.6,0.6,0.8,0.7c0,0,0,0,0.1,0c0,0.3,0,0.9,0,1.2c-0.1,0.8,0.2,2.2,1.3,2.7
					c0.2,0.1,0.4,0.2,0.6,0.2c0.3,0,0.7-0.2,0.8-0.5c0.2-0.3,0.1-0.7-0.2-1.1c-0.1-0.1-0.2-0.3-0.2-0.4c0-0.1,0-0.2,0-0.2
					c0-0.1,0-0.2,0-0.2c0.5-0.6,1-1.9,0.7-3c-0.2-0.6-0.6-1.1-1.3-1.2c-0.4-0.1-0.8-0.1-1-0.1h0h0c-0.1,0-0.2,0-0.3,0
					c0,0,0,0-0.1-0.1c-0.4-0.4-0.7-0.7-1.6-0.8c-0.5-0.1-0.7-0.2-0.7-0.2c0,0,0,0,0-0.1c-0.2-0.7-0.6-0.8-0.9-0.9
					C34.1,79.6,34,79.6,34,79.6L34,79.6z"/>
			</g>
			<g>
				<path class="st5" d="M90.5,121.6c-0.9,0-1.9,0-2.6-0.1c-1-0.1-1.4-0.2-1.4-0.6c0-0.2,0.1-0.4,0.4-0.5c0.2,0,0.4,0,0.8,0
					c0.9,0,2.3,0,3.4-0.3c0-0.1,0-0.1,0-0.2c0-0.2,0.1-0.3,0.3-0.4c1.1-0.6,2.9-0.8,4.5-1.1c0.2,0,0.5-0.1,0.7-0.1
					c-0.5,0-1.1-0.1-1.8-0.1c-0.6,0-1.2,0-1.8,0.1c-2.7,0.2-10.1,0.4-13,0.4c-0.6,0-1,0-1.2,0c-0.5,0-0.5-0.4-0.6-0.5
					c0-0.4,0.4-0.5,1-0.7c0.4-0.1,0.9-0.2,1.6-0.4c1.2-0.2,2.4-0.5,2.8-0.5c0.5-0.1,1.4-0.1,2.4-0.1c1.9-0.1,5.8-0.2,6.3-0.6
					c0.3-0.2,0.8-0.5,2.8-0.5c1,0,2,0.1,2.6,0.1c0.1-0.7,0.8-1.9,3.6-3c0.3-0.1,0.6-0.2,1-0.2c0.7,0,1.5,0.2,2.2,0.4
					c0.5,0.1,1,0.2,1.3,0.2c0,0,0.1,0,0.1,0c-0.1-1.2,0.4-2.3,1.4-3.1c0.2-0.2,0.4-0.3,0.6-0.4c0-0.1,0-0.2,0.1-0.4
					c0.1-0.1,0.1-0.2,0.1-0.2c0.4-1.2,1-2.3,1.5-3.4c0.6-1.1,1.2-2.3,1.5-3.4c0,0,0,0,0,0c0.5-1.3,1-2.7,1.4-4.5
					c0.8-2.9,1.3-5.9,1.7-9.3c0,0,0,0,0,0c0.1-0.9,0.2-1.7,0.2-2.4c0,0,0-0.1,0-0.1c0,0,0,0,0-0.1c0.1-0.3,0.1-0.7,0.2-1
					c0,0,0-0.1,0-0.1c0.1-0.3,0.3-0.5,0.4-0.8c0.4-0.8,1.5-1.7,3.3-1.7c1.2,0,2,0.4,2.4,1.1c1.3-1,2.8-1.6,4.3-1.6
					c2.3,0,4.5,1.2,5.8,3.2c1.1,1.7,1.2,3.7,0.4,5.5c-2.8,6-5,6.9-6.5,7.5c-0.4,0.2-0.7,0.3-0.9,0.5c0,0,0,0,0,0c0,0,0.1,0,0.1,0
					c0.5,0.3,1.5,0.8,1.4,2.2c0,0.2-0.1,0.4-0.1,0.6c0.4-0.1,0.9-0.2,1.4-0.2c1.3,0,2.2,0.5,2.6,1.5c0.8,1.7,0.4,2.9,0,3.5
					c0.4,0.4,1.1,1.4,0.9,2.5c-0.1,0.6,0,1.1,0,1.4c0.6-0.3,1.6-0.7,2.8-0.7c0.6,0,1.1,0.1,1.6,0.2c0.2,0.1,0.4,0.1,0.6,0.1
					c0.2,0,0.4,0,0.6-0.1c0.4-0.1,0.9-0.2,1.6-0.2c0.2,0,0.3,0,0.5,0c1,0,1.6,0.1,1.7,0.6c0.1,0.5-0.6,0.7-1,0.7
					c-0.4,0.1-1,0.2-1.7,0.3c-0.6,0.1-1.4,0.2-2.1,0.3c0,0,0.1,0,0.1,0c0.3,0,1.7,0,3.1,0.1c1.3,0,2.7,0,3.9,0
					c1.9,0.1,2.3,0.1,2.4,0.5c0,0.2,0,0.4-0.3,0.6c-0.5,0.3-1.7,0.3-3.8,0.4c-1.6,0.1-3.4,0.2-4.8,0.4c-0.6,0.1-1.1,0.1-1.7,0.1
					c-0.4,0-0.7,0-1,0c-0.3,0-0.6,0-0.9,0c-0.4,0-1,0-1.7,0.2c-0.5,0.1-0.9,0.3-1.4,0.5c-1.3,0.5-2.7,1-4.6,1c-0.2,0-0.3,0-0.5,0
					c-1.5-0.1-2.3-0.2-2.7-0.3c0,0.4-0.1,1-0.8,1.5c-0.4,0.3-0.9,0.5-1.4,0.6c-0.2,0.1-0.5,0.2-0.6,0.2c0,0,0.1,0,0.2,0
					c0.1,0,0.3,0,0.4,0c0.2,0,0.4,0,0.6,0c0.2,0,0.4,0,0.6,0.1c0.4,0.1,0.5,0.4,0.5,0.5c0,0.5-0.3,0.5-2.1,0.9
					c-1.5,0.3-3.7,0.8-5.5,1.5c-1.6,0.6-3.2,0.7-4.5,0.7c-0.5,0-0.9,0-1.4,0c-0.4,0-0.7,0-1,0c-0.8,0-1.2,0.1-1.3,0.2
					c-0.6,0.5-2,0.6-3.9,0.6c-0.5,0-1,0-1.5,0c-0.5,0-1,0-1.5,0c-0.4,0-0.8,0-1.1,0c-0.3,0-1.3,0.1-2.2,0.2
					c-1.2,0.2-2.7,0.3-3.3,0.3C90.9,121.5,90.7,121.6,90.5,121.6z"/>
				<path class="st2" d="M125.3,81.6c4.1,0,7.6,4.2,5.8,8.1c-3.5,7.5-6.1,6.8-7.3,7.8s1.5,0.4,1.2,2.6c-0.1,1-0.3,1.3-0.3,1.3
					c0.2-0.1,1.1-0.4,2.1-0.4c0.9,0,1.8,0.3,2.2,1.3c1,2.2-0.2,3.3-0.2,3.3s1.2,1,1.1,2.4s0.2,2.1,0.2,2.1s1.4-0.8,3.1-0.8
					c0.5,0,0.9,0.1,1.4,0.2c0.3,0.1,0.5,0.1,0.8,0.1c0.5,0,1-0.2,2.2-0.3c0.2,0,0.3,0,0.5,0c1.5,0,1.5,0.3,0.6,0.4
					c-1.8,0.3-8,0.9-3.6,1.5c1,0.1,9.9-0.1,9,0.3c-0.9,0.4-5.5,0.3-8.5,0.8c-0.6,0.1-1.1,0.1-1.6,0.1c-0.7,0-1.3-0.1-1.9-0.1
					c-0.6,0-1.2,0.1-1.9,0.3c-1.8,0.6-3.3,1.4-5.8,1.4c-0.2,0-0.3,0-0.5,0c-2.1-0.1-2.8-0.4-3.1-0.4c-0.1,0-0.2,0-0.2,0.1
					c0,0,0.3,0.9-0.5,1.5s-2.7,0.7-2.3,1.3c0.2,0.3,0.4,0.3,0.7,0.3c0.3,0,0.7-0.1,1.1-0.1c0.2,0,0.3,0,0.5,0.1
					c0.9,0.2-3.8,0.8-7.2,2.1c-1.4,0.6-3,0.7-4.3,0.7c-0.9,0-1.7-0.1-2.4-0.1c-0.8,0-1.4,0.1-1.6,0.3c-0.5,0.4-2,0.5-3.6,0.5
					c-0.9,0-2,0-2.9,0c-0.4,0-0.8,0-1.1,0c-0.8,0-4.4,0.6-5.5,0.6c-0.2,0-0.4,0-0.6,0c-2.4,0-3.9-0.3-3.5-0.3
					c0.4-0.1,3.2,0.1,4.8-0.6c0.2-0.1-0.4-0.3-0.2-0.4c1.6-0.8,5.1-1,6.4-1.4c1.1-0.3-0.8-0.7-3.3-0.7c-0.6,0-1.2,0-1.9,0.1
					c-2.7,0.2-10.1,0.4-13,0.4c-0.6,0-1,0-1.1,0c-1-0.1,4-1.1,4.8-1.2c1.8-0.2,8.1-0.1,9-0.8c0.3-0.3,1.4-0.4,2.5-0.4
					c1.5,0,3,0.2,3,0.2s-0.5-1.5,3.3-3.1c0.2-0.1,0.5-0.1,0.8-0.1c1.2,0,2.7,0.6,3.6,0.6c0.3,0,0.6-0.1,0.5-0.5
					c-0.2-2.7,2.7-3.5,2.7-3.5s-0.3-0.1-0.7-0.1c0.1-0.1,0.1-0.2,0.2-0.3c0.8-2.4,2.3-4.5,3.1-6.9c0.6-1.5,1.1-3,1.5-4.6
					c0.8-3.1,1.3-6.2,1.7-9.3c0.1-0.8,0.2-1.7,0.2-2.5c0,0,0-0.1,0-0.1c0.1-0.3,0.1-0.7,0.2-1c0.1-0.3,0.3-0.5,0.4-0.8
					c0.5-1,1.8-1.5,3-1.5c1.1,0,2.2,0.5,2.2,1.4C122.2,82.1,123.8,81.6,125.3,81.6 M125.3,80.7c-1.5,0-3,0.5-4.3,1.4
					c-0.5-0.6-1.4-0.9-2.5-0.9c-1.3,0-3,0.5-3.8,2c-0.1,0.2-0.2,0.5-0.4,0.8c0,0.1-0.1,0.1-0.1,0.2c-0.1,0.3-0.1,0.7-0.2,1
					c0,0,0,0.1,0,0.1v0.1v0.1c0,0,0,0,0,0c0,0.8-0.1,1.6-0.2,2.4c0,0,0,0,0,0c-0.4,3.3-0.9,6.3-1.7,9.2c-0.5,1.8-0.9,3.2-1.4,4.5
					c0,0,0,0,0,0.1c-0.4,1.2-0.9,2.2-1.5,3.4c-0.6,1.1-1.2,2.2-1.6,3.5c0,0.1,0,0.1-0.1,0.1c-0.1,0.1-0.1,0.2-0.1,0.3
					c-0.1,0.1-0.3,0.2-0.4,0.3c-1,0.8-1.6,1.8-1.6,3c-0.2-0.1-0.6-0.1-0.9-0.2c-0.7-0.2-1.6-0.4-2.3-0.4c-0.4,0-0.8,0.1-1.2,0.2
					c-1.8,0.7-2.9,1.6-3.5,2.5c-0.1,0.2-0.2,0.3-0.2,0.5c-0.6,0-1.4-0.1-2.2-0.1c-2,0-2.7,0.3-3,0.6c-0.7,0.3-4.3,0.5-6,0.5
					c-1,0-1.9,0.1-2.4,0.1c-0.5,0-1.8,0.3-2.9,0.5c-0.4,0.1-1.1,0.2-1.6,0.4c-0.6,0.2-1.3,0.4-1.3,1.1c0,0.3,0.2,0.9,1,0.9
					c0.1,0,0.3,0,1.2,0c2.6,0,8.8-0.1,12-0.3c-0.2,0.1-0.5,0.2-0.7,0.3c-0.3,0.1-0.4,0.4-0.5,0.6c-1,0.2-2.2,0.2-3,0.2
					c-0.5,0-0.8,0-0.9,0.1c-0.6,0.1-0.8,0.6-0.8,1c0.1,0.8,0.9,0.9,1.8,1c0.8,0.1,1.7,0.1,2.7,0.1c0.2,0,0.4,0,0.6,0
					c0.7,0,2-0.2,3.4-0.3c0.9-0.1,1.9-0.2,2.2-0.2c0.3,0,0.7,0,1.1,0c0.5,0,1,0,1.5,0c0.5,0,1,0,1.5,0c2.1,0,3.5-0.1,4.2-0.7
					c0.1,0,0.3-0.1,1.1-0.1c0.3,0,0.7,0,1,0c0.4,0,0.9,0,1.4,0c1.3,0,3-0.1,4.7-0.7c1.8-0.7,3.9-1.2,5.4-1.5c0.5-0.1,1-0.2,1.3-0.3
					c0.4-0.1,1.2-0.3,1.2-1.1c0-0.3-0.2-0.7-0.6-0.9c0.1,0,0.1-0.1,0.2-0.1c0.5-0.4,0.8-0.9,0.9-1.3c0.5,0.1,1.2,0.2,2.3,0.2
					c0.2,0,0.4,0,0.5,0c2,0,3.4-0.5,4.7-1c0.5-0.2,0.9-0.3,1.3-0.5c0.5-0.2,1-0.2,1.6-0.2c0.3,0,0.6,0,0.8,0c0.3,0,0.7,0,1,0
					c0.6,0,1.2-0.1,1.8-0.2c1.4-0.2,3.2-0.3,4.8-0.4c2.2-0.1,3.4-0.2,4-0.5c0.5-0.2,0.6-0.7,0.5-1.1c-0.2-0.7-0.9-0.8-1.4-0.8
					c-0.3,0-0.8-0.1-1.4-0.1c-0.8,0-1.7,0-2.6,0c0.3-0.2,0.6-0.5,0.6-1c-0.1-1-1.3-1-2.1-1c-0.1,0-0.3,0-0.5,0
					c-0.8,0-1.3,0.1-1.7,0.2c-0.2,0-0.4,0.1-0.5,0.1c-0.1,0-0.2,0-0.5-0.1c-0.5-0.2-1.1-0.3-1.7-0.3c-1,0-1.8,0.2-2.5,0.5
					c0-0.2,0-0.5,0-0.7c0.1-1.1-0.4-2-0.8-2.6c0.3-0.7,0.6-1.9-0.1-3.6c-0.5-1.2-1.6-1.8-3-1.8c-0.3,0-0.6,0-0.9,0.1
					c0.1-1.2-0.4-1.9-1-2.3c0.1,0,0.1-0.1,0.2-0.1c1.6-0.6,3.9-1.6,6.8-7.7c0.9-1.9,0.7-4.1-0.4-5.9C130.1,82,127.8,80.7,125.3,80.7
					L125.3,80.7z"/>
			</g>
			<g>
				<path class="st5" d="M97.1,109c-0.4,0-0.5-0.4-0.6-0.6c-0.2-0.7,0.1-1.5,0.4-1.9c0.3-0.3,0.6-0.5,0.8-0.5c0,0,0.1,0,0.1,0h0
					c0.2,0,0.9-0.1,1.3-0.5c0.5-0.5,0.7-1.4,0.4-2.1c-0.2-0.4-0.1-0.7,0-0.9c0.2-0.2,0.4-0.4,0.8-0.4c0.6,0,1.5,0.4,1.8,1.2
					c0.5,1,0.4,2.2-0.3,2.6c-0.3,0.2-0.7,0.3-1.1,0.3c-0.2,0-0.4,0.1-0.6,0.1c-0.9,0.2-1.8,0.6-2.2,1c-0.2,0.2-0.4,0.6-0.5,0.8
					C97.6,108.6,97.5,109,97.1,109z"/>
				<path class="st2" d="M100.4,102.6c0.4,0,1.1,0.3,1.5,1c0.4,0.8,0.3,1.8-0.1,2.1c-0.4,0.2-0.9,0.2-1.5,0.4
					c-0.8,0.2-1.8,0.6-2.3,1.1c-0.5,0.4-0.6,1.4-0.8,1.4c0,0-0.1-0.1-0.1-0.2c-0.2-0.8,0.4-1.9,0.9-1.9c0,0,0,0,0.1,0
					c0,0,0.1,0,0.1,0c0.3,0,1.1-0.1,1.6-0.6c0.7-0.6,0.9-1.7,0.5-2.6C99.9,102.8,100.1,102.6,100.4,102.6 M100.4,101.7L100.4,101.7
					c-0.5,0-0.9,0.2-1.1,0.6c-0.1,0.2-0.3,0.7,0,1.3c0.3,0.6,0.1,1.2-0.3,1.5c-0.3,0.3-0.8,0.4-1,0.4c-0.1,0-0.1,0-0.2,0
					c-0.3,0-0.8,0.1-1.2,0.7c-0.4,0.6-0.8,1.5-0.5,2.3c0.2,0.7,0.7,0.9,1,0.9c0.7,0,0.9-0.6,1-0.9c0.1-0.2,0.2-0.6,0.3-0.7
					c0.4-0.3,1.1-0.7,2-0.9c0.2-0.1,0.4-0.1,0.5-0.1c0.4-0.1,0.8-0.2,1.2-0.4c0.9-0.5,1.1-1.9,0.4-3.2
					C102.2,102.2,101.2,101.7,100.4,101.7L100.4,101.7z"/>
			</g>
			<g>
				<path class="st5" d="M115.8,104.7c-0.3,0-0.4-0.2-0.5-0.3c-0.1-0.4,0.1-0.6,2.3-2c1.4-0.9,2.2-1.6,2.9-2.2
					c0.9-0.8,1.4-1.3,2.3-1.3h0c0.6,0,2.6-1.5,3.5-2.2c1-0.7,1.1-0.8,1.3-0.8c0.2,0,0.3,0.1,0.4,0.3c0.1,0.3-0.1,0.5-0.4,0.9
					c-1.2,1.4-2.7,2.7-3.3,3.2c0.2,0.7,0.5,2.1-0.5,2.6c-0.8,0.4-1.5,0.6-2.2,0.6c-0.3,0-0.6,0-0.9-0.1c-0.1,0-0.2,0-0.3,0
					c-0.7,0-1.3,0.5-1.3,0.5c-0.1,0.1-0.2,0.1-0.3,0.1c0,0-0.4,0.1-1.8,0.4c-0.1,0-0.2,0.1-0.4,0.1
					C116.2,104.6,115.9,104.7,115.8,104.7z"/>
				<path class="st2" d="M127.7,96.3c0.1,0,0,0.1-0.3,0.4c-1.5,1.7-3.5,3.3-3.5,3.3s0.7,1.9-0.2,2.4c-0.7,0.4-1.3,0.6-2,0.6
					c-0.3,0-0.6,0-0.9-0.1c-0.1,0-0.3,0-0.4,0c-0.9,0-1.6,0.7-1.6,0.7s-0.4,0-1.9,0.4c-0.6,0.2-1,0.3-1.2,0.3
					c-0.3,0,0.2-0.3,2.1-1.5c3.1-1.9,3.7-3.4,5-3.4c0,0,0,0,0,0h0C124,99.3,127.4,96.3,127.7,96.3 M127.7,95.4
					c-0.4,0-0.6,0.1-1.6,0.9c-0.7,0.6-2.7,2-3.2,2.1h0c-1,0-1.7,0.6-2.6,1.4c-0.7,0.6-1.5,1.3-2.8,2.2c-0.8,0.5-1.4,0.9-1.7,1.1
					c-0.4,0.3-1,0.7-0.8,1.4c0.1,0.4,0.5,0.7,0.9,0.7c0.2,0,0.5-0.1,1.1-0.2c0.1,0,0.2-0.1,0.3-0.1c1.3-0.3,1.7-0.4,1.8-0.4
					c0.2,0,0.4-0.1,0.5-0.2c0,0,0.5-0.4,1-0.4c0.1,0,0.1,0,0.2,0c0.4,0.1,0.7,0.1,1,0.1c0.8,0,1.6-0.2,2.4-0.7c1-0.6,1-1.8,0.8-2.8
					c0.7-0.6,2-1.8,3.1-3c0.3-0.3,0.7-0.8,0.4-1.3C128.4,95.6,128,95.4,127.7,95.4L127.7,95.4z"/>
			</g>
			<g>
				<path class="st5" d="M118.2,95.9c-0.2,0-0.3-0.1-0.4-0.2c-0.1-0.3,0-0.5,0.2-0.8c0.3-0.5,0.7-1,1.1-1.4c0.4-0.5,0.9-1.2,1.1-1.4
					l0,0c0-0.1,0-0.3,0.1-0.4l0.9-1.4c0,0,0.1-0.1,0.1-0.1c2-1.8,2.2-1.8,2.4-1.8c0.2,0,0.3,0.1,0.4,0.3c0.1,0.3,0,0.5-0.8,1.3
					c0,0.1-0.1,0.3-0.1,0.5c-0.2,0.7-0.4,1.8-1.5,2.6c-0.7,0.5-1.7,1.4-2.3,2.1C118.5,95.8,118.5,95.9,118.2,95.9z"/>
				<path class="st2" d="M123.7,88.8c0.1,0-0.1,0.2-0.7,0.8c-0.3,0.4-0.1,2-1.6,3c-1.2,0.8-3,2.9-3.2,2.9c0,0,0-0.1,0.2-0.4
					c1-1.4,2.6-3.1,2.2-3.3l0.9-1.4C121.6,90.5,123.5,88.8,123.7,88.8 M123.7,87.9L123.7,87.9c-0.3,0-0.5,0-2.7,1.9
					c-0.1,0.1-0.1,0.1-0.2,0.2l-0.9,1.4c-0.1,0.2-0.2,0.3-0.2,0.5c-0.2,0.3-0.6,0.8-0.9,1.3c-0.4,0.5-0.8,1-1.1,1.5
					c-0.2,0.4-0.5,0.8-0.3,1.3c0.2,0.3,0.5,0.5,0.8,0.5c0.4,0,0.6-0.2,1.4-1c0.6-0.6,1.6-1.6,2.3-2c1.3-0.8,1.5-2.1,1.7-2.8
					c0-0.1,0.1-0.2,0.1-0.3c0.7-0.7,1.1-1.1,0.8-1.7C124.3,88.1,124,87.9,123.7,87.9L123.7,87.9z"/>
			</g>
		</g>
		<g>
			<g>
				<path class="st6" d="M59.3,85.2c-0.3,0-0.6-0.2-0.7-0.7c-0.4-1.2-2-3.6-7.7-6.1c-0.4-0.2-0.7-0.3-1-0.4c-0.5-0.2-1-0.3-1.9-0.8
					c-0.5-0.2-1.2-0.2-1.9-0.2c-1,0-1.9,0-2.5-0.6c-0.2-0.2-0.3-0.5-0.3-0.8c-1.9-0.2-2.5-1.1-2.7-1.9c-0.3-1.3,0.7-2.8,1.4-3.1
					c0,0,0,0,0,0c0,0,0-0.2,0-0.3c0-0.6-0.1-1.6,1.5-2.3c0.6-0.3,1.3-0.4,1.9-0.4c1,0,1.7,0.4,2,0.6c1.2-0.2,1.9-0.8,2.3-1.7
					c0.7-1.6,0-3.7-0.3-4.1l-0.2-0.3c-0.4-0.6-0.4-0.6-0.7-0.9L48.4,61c-0.3-0.4-0.4-0.8-0.3-1.2c0.1-0.2,0.3-0.4,0.6-0.4
					c0.2,0,0.4,0.1,0.6,0.2c0.3,0.2,0.5,0.6,0.8,1.2c0.2,0.3,0.3,0.7,0.6,1.1c0.1,0.2,0.3,0.4,0.5,0.7c0.3,0.3,0.5,0.6,0.8,0.9
					c0.1,0,0.2,0.1,0.2,0.1c1.1,0.4,3.9,1.3,3.8,5.3c0,1-0.8,1.5-1.3,1.8c-0.2,0.1-0.4,0.3-0.5,0.4c-0.6,0.8-1.4,1.2-2.3,1.2
					c-0.8,0-1.5-0.3-2-0.6c0.1,0.3,0,0.4,0,0.5c0,0.1-0.2,0.3-0.6,0.3l0,0c-0.2,0-0.5-0.1-0.9-0.2c-0.1,0-0.2-0.1-0.3-0.1
					c-0.5,0-0.8,0.6-0.8,1.2c0,0.6,0.1,1.3,0.8,1.4c1.9,0.3,3.5,2.1,3.9,2.5c0.6,0.3,3.9,1.7,5.4,3.1c1.3,1.2,2,2.8,2.3,3.6
					c0.2,0.4,0.1,0.9,0,1.1C59.6,85.2,59.4,85.2,59.3,85.2z"/>
				<path class="st2" d="M48.7,59.9c0.1,0,0.2,0,0.3,0.1c0.4,0.3,0.7,1.1,1.3,2.1c0.3,0.5,1,1.1,1.3,1.7c0.4,0.3,4,0.7,3.9,5.1
					c0,1.2-1.2,1.3-1.7,1.9c-0.6,0.8-1.3,1-2,1c-1.3,0-2.5-1.1-2.5-1.1l-0.5,0.2c0,0,1,1.1,0.4,1.1c-0.1,0-0.4-0.1-0.7-0.2
					c-0.2-0.1-0.3-0.1-0.5-0.1c-1.4,0-1.8,3.1-0.1,3.4c1.9,0.3,3.7,2.4,3.7,2.4s3.8,1.6,5.4,3.1c1.3,1.1,1.9,2.8,2.2,3.4
					c0.2,0.4,0.1,0.8-0.1,0.8c-0.1,0-0.2-0.1-0.3-0.4c-0.3-0.8-1.4-3.6-7.9-6.3c-1-0.4-1.3-0.4-2.8-1.1c-1.5-0.7-4.6,0.4-4.4-1.6
					c-4.3-0.3-2.4-3.8-1.6-4.2c0.8-0.4-0.7-1.7,1.5-2.6c0.7-0.3,1.2-0.4,1.7-0.4c1.2,0,1.9,0.6,1.9,0.6c0.1,0,0.1,0,0.2,0
					c4.2-0.7,3-5.6,2.3-6.5c-0.7-1.1-0.6-0.9-1-1.4C48.4,60.3,48.4,59.9,48.7,59.9 M48.7,59c-0.4,0-0.8,0.2-1,0.6
					c-0.2,0.5-0.1,1.1,0.3,1.6l0.1,0.2c0.2,0.3,0.2,0.3,0.7,0.9l0.2,0.3c0.3,0.4,0.9,2.3,0.3,3.7c-0.3,0.7-0.9,1.2-1.8,1.4
					c-0.4-0.2-1.1-0.5-2.1-0.5c-0.7,0-1.4,0.2-2.1,0.5c-2,0.9-1.8,2.1-1.8,2.8c0,0,0,0,0,0c-0.8,0.6-1.7,2.1-1.4,3.4
					c0.1,0.7,0.7,1.8,2.8,2.2c0.1,0.2,0.2,0.5,0.4,0.7c0.7,0.7,1.7,0.7,2.8,0.8c0.6,0,1.3,0,1.7,0.2c0.9,0.4,1.5,0.6,1.9,0.8
					c0.3,0.1,0.6,0.2,0.9,0.3c5.6,2.4,7.1,4.7,7.5,5.8c0.3,0.9,0.8,1,1.1,1c0.3,0,0.6-0.2,0.8-0.4c0.3-0.4,0.3-0.9,0.1-1.5
					c-0.3-0.9-1-2.6-2.4-3.8c-1.5-1.4-4.7-2.8-5.5-3.1c-0.5-0.5-2.2-2.2-4.1-2.5c-0.5-0.1-0.4-0.8-0.4-0.9c0-0.5,0.3-0.8,0.4-0.8
					c0,0,0.1,0,0.1,0c0.4,0.2,0.8,0.3,1,0.3c0.4,0,0.8-0.2,1-0.6c0.5,0.2,1,0.4,1.6,0.4c1,0,1.9-0.5,2.6-1.3
					c0.1-0.1,0.3-0.2,0.4-0.3c0.5-0.3,1.5-0.9,1.5-2.2c0.1-4.3-3.1-5.4-4.1-5.7c0,0,0,0-0.1,0c-0.2-0.3-0.5-0.6-0.7-0.9
					c-0.2-0.2-0.4-0.4-0.5-0.6c-0.2-0.4-0.4-0.7-0.6-1c-0.3-0.6-0.5-1-0.9-1.3C49.3,59.1,49,59,48.7,59L48.7,59L48.7,59L48.7,59z"/>
			</g>
			<g>
				<path class="st6" d="M46.9,58.6c-0.3,0-0.5-0.1-1.2-0.4c-0.5-0.2-1.3-0.6-2.4-1.1c-3.5-1.4-6.2-2-8-2.3
					c-1.4-0.3-2.1-0.4-2.4-0.8c-0.2-0.1-1-0.5-1.7-0.7c-2.6-1-4.7-1.9-4.8-3.1c0-0.5,0.3-1,1-1.4c0.1,0,0.1-0.1,0.1-0.1
					c-0.1-0.2-0.6-0.5-2.4-1.2c-0.8-0.3-1.5-1.5-1.2-3.4c0.4-2.5,2.1-3.6,3.5-3.6c0,0,0.1,0,0.1,0c0.7-0.4,1.2-0.6,1.8-0.6
					c0.6,0,1,0.2,1.4,0.5c0.2,0.1,0.3,0.2,0.5,0.2c0.3-0.4,0.9-1,2.1-1c0.3,0,0.6,0,0.9,0.1c0.1,0,0.3,0,0.4,0
					c0.8,0,1.5,0.2,2.3,0.5c0.7,0.2,1.4,0.5,2.4,0.7c0.2,0,0.3,0.1,0.5,0.1c1,0,1.6-0.8,1.6-1c0-0.8,0.8-1.9,2-1.9
					c0.2,0,0.5,0,0.7,0.2c0.1,0,0.1,0,0.2,0c0.2,0,0.4-0.3,0.5-0.5c0.2-0.4,0.1-1-0.1-1.1c-2.3-1.8-1-4.1-0.1-5.5
					c0.5-0.8-1.2-2-2.3-2.7c-0.4-0.2-0.7-0.5-0.9-0.7c-0.4-0.3-1.2-0.6-2.1-0.9c-1-0.4-2-0.7-2.5-1.2c-0.7-0.8-2.8-2-3.7-2.2
					c-1.1-0.3-6.1-4.9-7.4-6.9c-1.6-2.6-1.5-4.7-1.4-5.5c0-0.2,0.1-0.7,0.5-0.7s0.6,0.4,0.9,1.8c0.2,0.6,0.4,1.4,0.5,1.8
					c0.5,1.3,1.9,3.4,2.8,4.1c0.6,0.5,1,0.7,1.9,1.1c0.4,0.2,0.9,0.5,1.7,0.8c1.5,0.8,2.5,1.9,3.3,2.9c0.5,0.6,0.9,1,1.3,1.3
					s1,0.5,1.8,0.8c1.3,0.5,3.2,1.1,5.8,2.7c3.3,2,5.6,4.6,5.4,6.1c-0.1,0.5-0.4,0.9-0.9,1c-0.4,0.1-0.6,0.3-0.6,0.4
					c0,0.2,0.1,0.4,0.2,0.6c0.3,0.2,1.4,1,2.1,2c0.1,0.2,0.1,0.5-0.1,0.6c-1.3,1-2.4,2.1-3.4,3.3c-0.1,0.1-0.2,0.2-0.3,0.2
					c-0.1,0-0.1,0-0.2,0c-0.2-0.1-0.5-0.2-0.7-0.4c-0.5-0.3-1-0.5-1.5-0.6c0,0-0.1,0-0.1,0c-0.6,0-1.3,0.8-2,1.6
					c-0.9,1-1.8,2.1-3,2.1c-0.1,0-0.2,0-0.3,0c-0.1,0-0.3,0-0.4,0c-1,0-2,0.6-2.4,1.2c-0.2,0.2-0.2,0.4-0.2,0.4
					c0.1,0.1,0.3,0.3,0.5,0.5c0.7,0.7,1.6,1.6,1.5,2.5c0,0.4-0.3,0.8-0.7,1.1c-1.1,0.8-1.7,1.6-1.7,2c0.1,0.3,0.7,0.6,1,0.7
					c0.7,0.2,1.2,0.3,1.7,0.5c1.3,0.3,1.8,0.5,2,0.9c0.1,0,0.2,0,0.3,0c0.4,0,1,0.1,1.3,0.5c0.2,0.2,1.3,0.7,2.1,1.1
					c2.3,1.1,2.9,1.5,3,1.9c0,0.2,0,0.3-0.1,0.4C47.3,58.4,47.1,58.6,46.9,58.6L46.9,58.6z"/>
				<path class="st2" d="M24.9,10.8c0.2,0,0.6,2.3,1.1,3.3c0.5,1.2,1.9,3.4,2.9,4.2s1.4,0.8,3.7,2c2.3,1.1,3.4,3.3,4.6,4.2
					c1.2,0.8,3.5,1,7.6,3.5c4.1,2.5,6.3,5.8,4.6,6.3s-0.6,1.7-0.6,1.7s1.3,0.8,2,1.9c-1.3,1-2.4,2.1-3.5,3.3c-0.7-0.3-1.4-0.9-2.3-1
					c-0.1,0-0.1,0-0.2,0c-1.7,0-3.2,3.7-5.1,3.7c-0.1,0-0.1,0-0.2,0c-0.2,0-0.3,0-0.5,0c-1.9,0-3.4,1.7-3,2.3c0.5,0.7,3,2.5,1.5,3.6
					c-1.6,1.1-3,2.8-0.5,3.5s3.3,0.8,3.4,1.2c0.1,0.4,1.3,0.1,1.7,0.6c0.4,0.5,5.3,2.5,5.1,2.9c-0.1,0.1-0.1,0.1-0.2,0.1
					c-0.3,0-1.1-0.5-3.5-1.5c-6-2.4-9.8-2.4-10.2-3c-0.4-0.7-8.9-2.7-5.6-4.6c1.3-0.7-1-1.6-2.3-2c-1.8-0.6-1-6.1,2.2-6.1
					c0.1,0,0.2,0,0.2,0c0.7-0.4,1.2-0.6,1.6-0.6c0.9,0,1.3,0.7,2.1,0.8c0,0,0.5-1,1.9-1c0.3,0,0.6,0,0.9,0.1c0.2,0,0.3,0,0.4,0
					c1.2,0,2.3,0.6,4.7,1.2c0.2,0,0.4,0.1,0.6,0.1c1.2,0,2.1-0.9,2.1-1.5c0-0.5,0.6-1.4,1.5-1.4c0.2,0,0.4,0,0.6,0.1
					c0.1,0,0.2,0.1,0.3,0.1c1,0,1.4-1.9,0.6-2.5c-2-1.5-0.9-3.4,0-4.9c0.9-1.5-2.4-3.1-3.4-4c-1-0.8-3.8-1.2-4.5-2.1
					c-0.8-0.9-3-2.1-3.9-2.3c-0.9-0.2-5.9-4.6-7.1-6.7c-1.3-2.1-1.5-4-1.4-5.2C24.8,10.9,24.9,10.8,24.9,10.8 M24.9,9.9
					c-0.2,0-0.9,0.1-1,1c-0.1,0.8-0.2,3.1,1.5,5.8c0.9,1.4,3,3.4,3.9,4.2c0.9,0.8,3,2.6,3.8,2.9c0.8,0.2,2.8,1.4,3.5,2.1
					c0.6,0.6,1.6,1,2.7,1.4c0.7,0.2,1.6,0.5,1.9,0.8c0.2,0.2,0.6,0.4,1,0.7c0.6,0.4,1.4,0.9,1.8,1.4c0.1,0.2,0.5,0.5,0.4,0.7
					c-0.8,1.4-2.4,4,0.2,6.1c0.1,0.2,0,0.7-0.1,0.9c-0.3-0.1-0.6-0.2-0.9-0.2c-0.7,0-1.3,0.3-1.8,0.8c-0.4,0.4-0.6,1-0.6,1.5
					c-0.1,0.2-0.5,0.6-1.2,0.6c-0.1,0-0.2,0-0.4,0c0,0,0,0,0,0c-1-0.2-1.7-0.5-2.4-0.7c-0.9-0.3-1.7-0.5-2.5-0.5c-0.1,0-0.2,0-0.3,0
					c-0.3-0.1-0.7-0.1-1-0.1c-1,0-1.7,0.4-2.2,0.9c0,0-0.1,0-0.1-0.1c-0.4-0.2-0.9-0.5-1.6-0.5c-0.6,0-1.2,0.2-1.9,0.6c0,0,0,0,0,0
					c-1.1,0-2,0.5-2.8,1.3c-0.6,0.7-1,1.6-1.2,2.6c-0.3,1.9,0.2,3.5,1.5,3.9c0.9,0.3,1.4,0.5,1.7,0.7C26,49,25.9,49.6,26,50.1
					c0.1,1.5,2.2,2.4,5,3.5c0.6,0.2,1.3,0.5,1.5,0.6c0.4,0.5,1.2,0.7,2.6,1c1.8,0.4,4.5,0.9,7.9,2.3c1.1,0.5,1.9,0.8,2.4,1
					c0.7,0.3,1,0.5,1.4,0.5c0.2,0,0.7-0.1,1-0.5c0.2-0.2,0.2-0.5,0.1-0.8c-0.2-0.6-0.8-1-3.3-2.2c-0.7-0.4-1.7-0.8-2-1
					c-0.4-0.5-1.1-0.6-1.5-0.7c0,0-0.1,0-0.1,0c-0.3-0.4-1-0.6-2.2-0.9c-0.4-0.1-1-0.3-1.7-0.5c-0.5-0.2-0.7-0.3-0.7-0.3
					c0-0.1,0.3-0.7,1.5-1.6c0.7-0.5,0.8-1,0.9-1.4c0.1-1.2-0.9-2.2-1.7-2.9c-0.1-0.1-0.2-0.2-0.3-0.3c0.2-0.4,1-1,2.1-1
					c0.1,0,0.2,0,0.3,0c0.1,0,0.2,0,0.3,0c1.4,0,2.4-1.2,3.4-2.3c0.5-0.6,1.3-1.5,1.7-1.5c0,0,0,0,0,0c0.5,0.1,1,0.3,1.4,0.6
					c0.2,0.1,0.5,0.3,0.7,0.4c0.1,0.1,0.2,0.1,0.4,0.1c0.2,0,0.5-0.1,0.7-0.3c1-1.1,2.1-2.2,3.4-3.2c0.4-0.3,0.4-0.8,0.2-1.2
					c-0.7-1-1.7-1.8-2.1-2c0,0,0-0.1,0-0.1c0,0,0.2-0.1,0.3-0.1c0.7-0.2,1.1-0.7,1.2-1.4c0.1-1.1-0.8-2.4-1.5-3.3
					c-1-1.2-2.5-2.3-4.1-3.3c-2.6-1.6-4.5-2.2-5.8-2.7c-0.8-0.3-1.3-0.5-1.7-0.7c-0.4-0.2-0.8-0.7-1.2-1.3c-0.8-1-1.9-2.2-3.5-3
					c-0.7-0.4-1.3-0.6-1.7-0.8c-0.9-0.4-1.2-0.6-1.9-1.1c-0.8-0.6-2.1-2.7-2.6-3.9c-0.2-0.4-0.4-1.1-0.5-1.8
					c-0.1-0.4-0.2-0.8-0.3-1.1C25.8,10.6,25.6,9.9,24.9,9.9v0.9V9.9L24.9,9.9L24.9,9.9z"/>
			</g>
			<g>
				<path class="st6" d="M25,9.6c-0.6,0-0.8-0.6-0.9-1.1c0,0,0,0,0,0c-0.2-0.3-0.8-1.2-0.1-1.9c0.1-0.2,0.2-0.6,0.2-0.9
					c0.1-0.4,0.1-0.8,0.6-0.8c0.4,0,0.5,0.4,0.6,0.6c0.4,0.9,0.5,3.3,0,4C25.4,9.5,25.2,9.6,25,9.6z"/>
				<path class="st2" d="M24.8,5.2c0,0,0.1,0.1,0.2,0.3c0.4,0.9,0.4,3.6,0,3.6s-0.4-0.8-0.4-0.8c-0.1-0.2-0.7-1-0.3-1.6
					C24.7,6.3,24.7,5.2,24.8,5.2 M24.8,4.4L24.8,4.4c-0.1,0-0.7,0-0.9,0.8c0,0.1-0.1,0.2-0.1,0.4c0,0.2-0.1,0.6-0.2,0.7
					c-0.8,0.9-0.2,2,0.1,2.4C23.9,9.5,24.3,10,25,10c0.3,0,0.6-0.2,0.8-0.5c0.1-0.1,0.4-0.6,0.3-2.1c0-0.4-0.1-1.6-0.4-2.2
					C25.8,5,25.5,4.4,24.8,4.4L24.8,4.4z"/>
			</g>
		</g>
		<g>
			<g>
				<path class="st5" d="M127.5,20.9c-0.2,0-0.3-0.1-0.4-0.2c-0.1-0.1-0.1-0.3,0-0.5c0.1-0.2,0.2-0.4,0.4-0.6
					c0.1-0.1,0.2-0.3,0.3-0.4c-0.1-0.4,0.3-0.7,2.3-1.8c0.6-0.4,1.3-0.8,1.5-0.9c0.3-0.3,1.3-0.8,1.6-1c1.3-0.7,1.5-0.7,1.6-0.7
					c0.2,0,0.4,0.1,0.4,0.3c0.1,0.3-0.2,0.5-0.4,0.7c-0.9,0.7-4.5,3.4-4.5,3.4C128,20.9,127.7,20.9,127.5,20.9z"/>
				<path class="st2" d="M134.7,15.2c0.1,0,0,0.1-0.2,0.2c-1,0.7-4.6,3.4-4.6,3.4s-2.1,1.6-2.4,1.6c0,0,0,0,0,0
					c0.2-0.4,0.8-1,0.7-1.3c-0.1-0.3,3-1.9,3.6-2.4C132.3,16.4,134.5,15.2,134.7,15.2 M134.7,14.3L134.7,14.3c-0.2,0-0.4,0-1.8,0.7
					c-0.5,0.3-1.3,0.7-1.7,1c-0.2,0.1-0.9,0.6-1.4,0.9c-0.5,0.3-1,0.6-1.4,0.9c-0.5,0.3-1,0.7-1,1.2c-0.1,0.1-0.1,0.2-0.2,0.3
					c-0.2,0.2-0.3,0.5-0.4,0.8c-0.1,0.3-0.1,0.6,0.1,0.9c0.2,0.2,0.4,0.4,0.8,0.4c0.3,0,0.6,0,3-1.8c0,0,3.6-2.8,4.5-3.4
					c0.2-0.1,0.7-0.5,0.5-1.2C135.4,14.6,135.1,14.3,134.7,14.3L134.7,14.3z"/>
			</g>
			<path class="st7" d="M123.8,49.5"/>
			<g>
				<path class="st5" d="M91.1,95c-0.4,0-0.5-0.3-0.6-0.4c-0.1-0.4,0.2-0.7,1.6-1.4c0.8-0.4,1.9-1,2.9-1.5c2.4-1.2,4.7-3.6,5.3-5.4
					c0.6-1.8,3-2.7,4.1-3.1c0.2-0.1,0.4-0.1,0.5-0.2c0,0,0.1,0,0.1-0.1c1.7-0.4,6.3-2,7.3-3.9c0.6-1,0.5-1.4,0.4-1.4
					c-0.1-0.2-0.4-0.2-0.9-0.2c-0.6,0-1.4,0.1-2.5,0.4c-1.7,0.4-2.7,0.9-3.5,1.3c-0.8,0.4-1.5,0.8-2.7,0.9c-0.2,0-0.5,0-0.7,0
					c-2.3,0-3.9-0.4-5.1-1.3c-0.2-0.1-0.4-0.3-0.5-0.4c-0.8-0.6-1.4-1.1-2.4-1.1c-0.4,0-0.8,0.1-1.2,0.2c-2.2,0.6-3.9,0.8-5.1,0.8
					c-1.6,0-1.9-0.6-1.9-1.1c0-0.9,1.3-1.8,2-1.8c0.2,0,0.3-0.1,0.3-0.1c0-0.1-0.3-0.5-1-0.6c-0.9-0.2-2.2-0.5-2.4-1.4
					c-0.3-1.5,2.6-3.4,5.4-5.1c5.4-3.3,6.9-3.5,8.3-3.8c0.3-0.1,0.7-0.1,1.1-0.2c0.2-0.1,0.4-0.1,0.6-0.2c1.9-0.5,2.8-0.8,2.7-1.6
					c-0.1-0.9,0.1-1.7,0.6-2.2c0.5-0.6,1.3-0.8,1.7-0.8c0,0,0-0.1,0-0.1s-0.1-0.1-0.1-0.1c-0.1,0-0.4-0.1-0.6-0.1
					c-0.7,0-1.6-0.1-2.3-0.8c-0.8-0.8-0.8-2.5,0-4.5c1.3-3.4,4.5-7,7.7-7c0.2,0,0.5,0,0.7,0.1c1.5,0.3,2.5,0.8,2.8,1.5
					c0.1,0.1,0.1,0.2,0.1,0.3c0.7-0.3,1.6-0.8,2.4-0.8c0.4,0,0.8,0.1,1.1,0.4c0.3,0.3,0.4,0.7,0.4,1.3c0,0.7,0.1,0.9,0.1,1
					c0.2,0,0.6-0.2,1-0.4c0.5-0.3,1.2-0.6,2-0.8c0.2,0,0.4-0.1,0.6-0.1c0.4,0,0.8,0.1,1.2,0.2c0.4,0.1,0.8,0.2,1.2,0.2
					c0.5,0,1.2-0.1,1.8-1c1-1.3,1.4-3.8,1-5.9c-0.5-2.5-1.2-2.8-1.9-2.8c-0.5,0-1.1,0.2-1.9,0.5c-0.7,0.2-1.3,0.4-2,0.4
					c-1.8,0-3.4-0.9-4.1-2.2c-0.1-0.2-0.5-0.4-1.2-0.4c-0.8,0-1.7,0.2-2.6,0.6c-1.2,0.5-2.5,1.3-3.7,2.1c-1.5,0.9-2.8,1.8-3.7,2
					c-0.3,0.1-0.5,0.1-0.8,0.2c-0.7,0.2-1.5,0.4-2.4,0.5c0,0-0.1,0-0.1,0c-0.1,0-0.3-0.1-0.4-0.2l-0.2-0.3c-1-1.4-1.9-2.7-3.3-3.5
					c-0.1,0-0.1-0.1-0.1-0.1c-0.7-0.8-1.4-1.5-2.2-2.1c-0.1-0.1-0.2-0.2-0.2-0.4s0.1-0.3,0.2-0.3c0.5-0.3,1-0.6,1.5-0.8
					c0.4-0.2,0.9-0.4,1-0.6c0.6-0.5,1.2-0.8,1.7-0.8c-0.4-1.2-0.9-4,1.1-5.3c2.1-1.3,4.3-1.5,5.2-1.5c0.1,0,0.1,0,0.1,0
					c0.5-0.4,1.9-1.7,3.7-1.7c0.8,0,1.6,0.3,2.3,0.9c1.8-0.6,4.9-2,7.6-3.7c5.2-3.3,5.6-3.3,5.7-3.3c0.2,0,0.3,0.1,0.4,0.2
					c0.1,0.1,0.1,0.3,0,0.5c-0.3,0.5-1.6,1.3-3.5,2.6c-0.4,0.3-0.9,0.6-1.4,0.9c1.2-0.7,2.1-1.2,2.7-1.2c0.2,0,0.4,0,0.5,0.1
					c0.1,0.1,0.2,0.2,0.2,0.4c0,0.3-0.1,0.4-1.6,1.2c-0.8,0.5-1.8,1-2.1,1.3c-0.7,0.6-1.5,0.8-2.3,1c-0.5,0.1-1,0.2-1.5,0.5
					c-1.8,0.9-2.4,1.5-3,2.3c-0.1,0.2-0.3,0.3-0.4,0.5c-0.8,0.8-3.1,2.1-4,2.5c0,0.1,0,0.2,0,0.4c-0.2,0.7-1.1,1.3-2.7,1.8
					c-2.6,0.8-3.8,2.2-3.5,4.1c0.1,0.4,0.5,0.6,1.2,0.6c1.3,0,3-0.7,3.8-1.4c0.3-0.2,0.7-0.6,1.1-1c1.2-1.2,2.4-2.5,3.8-2.5
					c0.6,0,1.1,0.2,1.5,0.7c1.4-1,4.8-2.8,6.4-2.8c0.5,0,0.8,0.1,1,0.4c0.1,0.1,0.1,0.2,0.2,0.3c0.5-0.1,0.9-0.2,1.4-0.2
					c2.3,0,3.6,1.8,3.7,4.8c1.8,1.8,3.2,7.3,3.2,7.5c0,0,0,0,0,0.1c0,0.2,0.6,5.2-1.2,7.7c-0.9,1.2-1.1,1.2-1.3,1.2l0,0
					c-0.2,0-0.3-0.1-0.4-0.2c-0.1-0.3-0.1-0.5,0.4-1.3c0.7-1,0.9-2,1-2.8c-0.5,1-1.2,1.8-2,2.5c-1.3,1.2-2.4,1.3-3.2,1.5
					c-0.6,0.1-0.6,0.1-0.6,0.3c-0.1,0.8-1.1,1.9-1.9,2.6c0.7,0.3,0.9,1,1.1,1.5c0.3-0.2,0.9-0.6,1.2-0.9c0.4-0.3,0.8-0.6,1.1-0.8
					l0.1,0c0.4-0.2,1-0.5,1.6-1.3c0,0,0,0,0,0c0.2-0.2,0.7-0.7,1.1-0.7c0.2,0,0.4,0.1,0.4,0.3c0.1,0.3,0,0.6-0.5,1.3
					c-0.3,0.4-0.5,0.7-0.7,0.9c-0.4,0.6-0.6,0.9-1.3,1.6c-1.7,1.6-3.8,3-5.9,4c-2.1,1.1-3.8,1.6-4.2,1.6c-0.3,0-1,0.2-1.7,0.5
					c-0.8,0.3-1.6,0.6-2.2,0.6c-0.4,0-0.6-0.2-0.7-0.3c-0.2-0.2-0.1-0.5,0-0.9c0.1-0.2,0.1-0.4,0.1-0.4c0,0,0,0-0.1,0
					c-0.3,0-1.1,0.3-2.1,1c-2.2,1.5-4.5,3.1-5.9,3.3c-0.6,0.1-0.9,0.3-1.3,0.5c-0.5,0.3-1.1,0.6-2.2,0.9c-0.4,0.1-0.8,0.2-1,0.2
					c-0.6,0-0.6-0.4-0.6-0.5c-0.1-0.7,1.5-1.4,2.1-1.6c0.8-0.2,1.3-0.4,1.6-0.6c-1.3,0.2-4.2,1.3-7.3,3.6c-2.1,1.6-2.6,2.7-2.4,3.2
					c0.1,0.4,0.8,0.7,1.7,0.7c0.3,0,0.7,0,1-0.1c0.6-0.1,1.2-0.2,1.6-0.2c2.1,0,2.3,1.1,2.4,1.8l0,0.1c0.1,0.3,1,1.1,2.1,1.1
					c0.4,0,0.8-0.2,1.3-0.4c0.5-0.2,1-0.5,1.7-0.7c0.6-0.2,1.1-0.2,1.5-0.2c0.5,0,0.8,0.1,1.1,0.2c0.2,0.1,0.3,0.1,0.4,0.1
					c0.4,0,1.2-0.3,2.4-0.9c2.3-1.2,4.1-1.8,5.5-1.8c1.5,0,2.6,0.7,3.4,2c0.9,1.7-1.6,3.2-4.6,5.1c-0.4,0.2-0.8,0.5-1.2,0.7
					c-1.5,0.9-3.1,2.1-4.9,3.6l-0.1,0.1c-0.8,0.7-2.8,1.9-5,2.5c-1.4,0.4-2.2,1.5-2.8,2.4c-0.3,0.4-0.5,0.7-0.8,0.9
					c-0.7,0.6-5.1,3.3-7.2,3.8C91.4,95,91.2,95,91.1,95z"/>
				<path class="st2" d="M125.8,20.5C125.8,20.5,125.8,20.5,125.8,20.5c-0.8,1.1-8.6,5.4-6.9,5.4c0,0,0.1,0,0.1,0
					c0.7-0.1,3.8-2.4,4.9-2.4c0.1,0,0.2,0,0.2,0.1c0.1,0.1-2.8,1.6-3.5,2.2c-1,0.8-2.6,0.8-3.7,1.4c-2.3,1.1-2.7,1.9-3.6,2.8
					c-0.9,1-4.2,2.6-4.2,2.6s0.9,1-2.3,1.9c-3.2,1-4.1,2.8-3.8,4.6c0.1,0.7,0.8,1,1.6,1c1.3,0,3.2-0.7,4.1-1.5
					c1.2-0.9,3-3.4,4.6-3.4c0.5,0,1,0.2,1.4,0.9c1-0.8,4.8-3,6.5-3c0.6,0,0.9,0.2,0.8,0.9c0.7-0.2,1.3-0.3,1.8-0.3
					c2.3,0,3.3,2.1,3.3,4.6c1.8,1.5,3.2,7.4,3.2,7.4s0.6,5-1.1,7.4c-0.5,0.7-0.8,1-0.9,1c-0.1,0,0-0.3,0.3-0.8
					c1.6-2.6,0.9-4.8,0.9-5c0,0,0,0,0,0c0,0-0.5,2.4-2.6,4.2c-2.3,2-3.8,0.9-3.9,2c-0.1,1.2-2.8,3.2-2.8,3.2
					c0.3-0.1,0.5-0.2,0.7-0.2c0.9,0,1.2,1.1,1.2,1.6c0,0.1,0.1,0.1,0.2,0.1c0.5,0,2.1-1.4,2.8-1.8c0.4-0.2,1.1-0.6,1.8-1.5
					c0.3-0.3,0.7-0.6,0.8-0.6c0.1,0,0.1,0.2-0.4,0.8c-0.9,1.3-0.9,1.5-1.9,2.4c-2,1.8-4.1,3.1-5.8,4c-2.1,1.1-3.7,1.5-4,1.5
					c-0.8,0-2.9,1-3.8,1c-0.3,0-0.5-0.2-0.3-0.6c0.3-0.7,0.2-1.1-0.3-1.1c-0.5,0-1.4,0.4-2.4,1c-1.9,1.3-4.4,3-5.7,3.2
					c-1.3,0.2-1.5,0.8-3.6,1.5c-0.4,0.1-0.7,0.2-0.9,0.2c-0.7,0,0.4-0.8,1.6-1.2c1.5-0.4,2.5-1,2.2-1.4c-0.1-0.1-0.2-0.1-0.4-0.1
					c-1.1,0-4.2,1-7.8,3.8c-3.8,2.9-3,4.7-0.5,4.7c0.3,0,0.7,0,1.1-0.1c0.6-0.1,1.1-0.2,1.6-0.2c1.8,0,1.9,0.8,2,1.6
					c0.1,0.5,1.2,1.5,2.5,1.5h0c0.9,0,1.7-0.8,3.1-1.1c0.6-0.2,1.1-0.2,1.4-0.2c0.8,0,1,0.3,1.5,0.3c0.4,0,1.1-0.2,2.6-1
					c2.1-1.1,3.9-1.8,5.3-1.8c1.3,0,2.3,0.5,3,1.8c0.8,1.5-2.5,3.2-5.6,5.2c-2.4,1.5-4.7,3.4-5,3.7c-0.8,0.7-2.7,1.8-4.9,2.4
					s-3,2.8-3.8,3.4c-0.7,0.6-5,3.2-7,3.7c-0.2,0.1-0.4,0.1-0.5,0.1c-0.7,0,2.1-1.4,4.2-2.5c2.5-1.2,4.9-3.7,5.5-5.7
					c0.6-2,4-2.7,4.4-3c0,0,6.2-1.7,7.6-4.1c0.9-1.7,0.6-2.3-0.9-2.3c-0.7,0-1.5,0.1-2.6,0.4c-3.5,0.8-4,2.1-6.1,2.2
					c-0.2,0-0.5,0-0.7,0c-1.9,0-3.6-0.3-4.8-1.2c-1.1-0.8-1.8-1.6-3.2-1.6c-0.4,0-0.8,0.1-1.3,0.2c-2.4,0.6-4,0.8-4.9,0.8
					c-2.9,0-0.9-1.9,0.1-2c1.3-0.1,0.9-1.3-0.7-1.6c-2.8-0.4-3.7-1.7,3.1-5.7c6.8-4.1,7.2-3.4,9.2-3.9c2-0.5,3.8-0.8,3.6-2.2
					c-0.3-2.4,1.8-2.5,2.1-2.5c0,0,0,0,0,0s0.4-0.7-0.2-1c-0.5-0.2-1.9,0.1-2.8-0.8c-2.1-2,2.6-10.8,7.3-10.8c0.2,0,0.4,0,0.6,0.1
					c3.5,0.6,2.4,2.3,2.4,2.3s1.8-1.1,2.9-1.1c0.6,0,1.1,0.3,1,1.2c-0.1,1.1,0.1,1.4,0.5,1.4c0.6,0,1.7-0.8,3.1-1.2
					c0.2,0,0.3-0.1,0.5-0.1c0.8,0,1.6,0.3,2.5,0.3c0.8,0,1.5-0.2,2.2-1.2c1.1-1.5,1.4-4.2,1.1-6.3c-0.5-2.4-1.2-3.2-2.3-3.2
					c-0.6,0-1.3,0.2-2.1,0.5c-0.6,0.2-1.3,0.3-1.9,0.3c-1.6,0-3.1-0.8-3.7-2c-0.2-0.4-0.8-0.6-1.6-0.6c-0.8,0-1.8,0.2-2.8,0.7
					c-2.7,1.2-5.7,3.7-7.3,4.1c-0.9,0.2-2,0.5-3.2,0.7c-1-1.5-2-3-3.7-3.9c-0.7-0.8-1.4-1.5-2.2-2.2c1-0.6,2.2-1,2.6-1.4
					c0.7-0.6,1.4-0.7,1.8-0.7c0.1,0,0.2,0,0.2,0s-1.6-3.9,0.7-5.3c2-1.3,4.2-1.4,5-1.4c0.2,0,0.3,0,0.3,0s1.6-1.7,3.5-1.7
					c0.7,0,1.5,0.2,2.2,0.9c1.9-0.6,5.1-2.1,7.9-3.8C123.2,21.8,125.6,20.5,125.8,20.5 M125.8,19.6c-0.2,0-0.4,0-2.1,1
					c-1,0.6-2.3,1.4-3.8,2.3c-2.6,1.6-5.5,2.9-7.3,3.6c-0.7-0.5-1.5-0.8-2.3-0.8c-1.7,0-3.2,1.1-3.8,1.7c-0.9,0-3.3,0.2-5.4,1.5
					c-2,1.3-1.8,3.9-1.4,5.3c-0.4,0.1-0.9,0.4-1.4,0.8c-0.1,0.1-0.6,0.3-0.9,0.5c-0.5,0.2-1,0.5-1.6,0.8c-0.2,0.2-0.4,0.4-0.4,0.7
					c0,0.3,0.1,0.6,0.3,0.7c0.8,0.6,1.5,1.3,2.1,2c0.1,0.1,0.2,0.2,0.2,0.2c1.3,0.7,2.2,2,3.1,3.3c0.1,0.1,0.2,0.2,0.2,0.3
					c0.2,0.2,0.4,0.4,0.7,0.4c0.1,0,0.1,0,0.2,0c0.9-0.2,1.7-0.3,2.4-0.5c0.3-0.1,0.6-0.1,0.8-0.2c1-0.2,2.3-1.1,3.9-2
					c1.2-0.8,2.5-1.6,3.6-2.1c0.8-0.4,1.7-0.6,2.4-0.6c0.5,0,0.8,0.1,0.8,0.2c0.8,1.5,2.6,2.4,4.5,2.4c0.7,0,1.5-0.1,2.2-0.4
					c0.6-0.2,1.3-0.5,1.8-0.5c0.3,0,0.9,0,1.4,2.5c0.4,2,0,4.4-0.9,5.6c-0.6,0.7-1.1,0.8-1.5,0.8c-0.4,0-0.8-0.1-1.2-0.2
					c-0.4-0.1-0.9-0.2-1.3-0.2c-0.3,0-0.5,0-0.7,0.1c-0.8,0.2-1.5,0.6-2,0.8c-0.2,0.1-0.3,0.2-0.5,0.2c0-0.1,0-0.2,0-0.3
					c0-0.7-0.1-1.2-0.5-1.6c-0.2-0.2-0.7-0.5-1.4-0.5c-0.7,0-1.5,0.3-2.1,0.6c-0.4-0.8-1.4-1.4-3.1-1.7c-0.3,0-0.5-0.1-0.8-0.1
					c-1.6,0-3.3,0.8-4.9,2.5c-1.3,1.3-2.5,3.1-3.2,4.8c-0.9,2.3-0.9,4.1,0.1,5c0.5,0.5,1.2,0.7,1.7,0.8c-0.2,0.1-0.3,0.2-0.5,0.4
					c-0.6,0.6-0.8,1.5-0.7,2.6c0,0.1,0,0.3-0.4,0.5c-0.5,0.2-1.2,0.4-2,0.7c-0.2,0.1-0.4,0.1-0.6,0.2c-0.4,0.1-0.7,0.2-1,0.2
					c-1.4,0.2-2.9,0.5-8.4,3.8c-2,1.2-3.4,2.2-4.3,3c-0.7,0.6-1.5,1.5-1.3,2.6c0.3,1.3,2,1.7,2.7,1.8c-0.8,0.4-1.7,1.2-1.7,2
					c0,0.5,0.3,1,0.8,1.2c0.4,0.2,0.9,0.3,1.5,0.3c1.2,0,2.9-0.3,5.2-0.9c0.4-0.1,0.8-0.2,1.1-0.2c0.9,0,1.4,0.4,2.1,1
					c0.2,0.1,0.3,0.3,0.6,0.4c1.2,0.9,3,1.4,5.4,1.4c0.2,0,0.5,0,0.7,0c1.3,0,2.1-0.5,2.9-0.9c0.8-0.4,1.7-0.9,3.4-1.3
					c1.1-0.2,1.9-0.4,2.4-0.4c0.3,0,0.4,0,0.5,0.1c0,0.1-0.1,0.4-0.4,1c-0.8,1.5-4.8,3.1-7,3.7c-0.1,0-0.2,0.1-0.2,0.1
					c-0.1,0-0.2,0.1-0.4,0.1c-1.2,0.4-3.7,1.3-4.4,3.3c-0.6,1.7-2.8,4-5.1,5.2c-1.1,0.5-2.1,1.1-2.9,1.5c-1.3,0.7-2.1,1.1-1.9,1.9
					c0.1,0.3,0.4,0.7,1,0.7c0.2,0,0.4,0,0.7-0.1c2.2-0.5,6.6-3.3,7.3-3.9c0.3-0.2,0.6-0.6,0.9-1c0.6-0.8,1.3-1.9,2.6-2.2
					c2.4-0.6,4.4-1.9,5.2-2.6c0,0,0.1-0.1,0.1-0.1c1.7-1.4,3.4-2.6,4.8-3.5c0.4-0.2,0.8-0.5,1.2-0.7c1.4-0.9,2.7-1.7,3.6-2.5
					c1.3-1.1,1.7-2.2,1.1-3.2c-0.8-1.5-2.1-2.2-3.8-2.2c-1.5,0-3.3,0.6-5.7,1.9c-1.1,0.6-1.9,0.9-2.2,0.9c-0.1,0-0.1,0-0.3-0.1
					c-0.3-0.1-0.6-0.2-1.2-0.2c-0.4,0-1,0.1-1.6,0.2c-0.7,0.2-1.3,0.5-1.8,0.7c-0.5,0.2-0.8,0.4-1.1,0.4c-0.9,0-1.5-0.6-1.7-0.8
					c0,0,0-0.1,0-0.1C99,75.4,98.7,74,96.3,74c-0.5,0-1,0.1-1.7,0.2c-0.3,0.1-0.7,0.1-0.9,0.1c-0.9,0-1.2-0.2-1.3-0.3
					c-0.1-0.2,0.2-1.2,2.3-2.7c1-0.8,2-1.4,2.8-1.9c0,0,0,0.1,0,0.1c0.1,0.4,0.4,0.9,1.1,0.9c0.3,0,0.6-0.1,1.1-0.2
					c1.2-0.4,1.8-0.7,2.3-1c0.4-0.2,0.7-0.4,1.2-0.5c1.4-0.3,3.7-1.8,6-3.4c0.5-0.3,0.9-0.6,1.3-0.7c-0.1,0.4,0,0.7,0.1,0.9
					c0.1,0.2,0.4,0.5,1.1,0.5c0.6,0,1.4-0.3,2.3-0.6c0.6-0.2,1.3-0.4,1.5-0.4c0.5,0,2.2-0.6,4.3-1.6c2.2-1.1,4.3-2.5,6-4.1
					c0.8-0.7,1-1.1,1.4-1.6c0.2-0.2,0.4-0.5,0.6-0.9c0.3-0.5,0.8-1.1,0.5-1.7c0.3-0.1,0.7-0.4,1.4-1.4c1.8-2.6,1.3-7.8,1.2-8
					c0,0,0-0.1,0-0.1c-0.1-0.6-1.4-5.7-3.2-7.6c-0.1-3.2-1.7-5.1-4.2-5.1c-0.4,0-0.7,0-1.1,0.1c0,0-0.1-0.1-0.1-0.1
					c-0.2-0.2-0.6-0.5-1.4-0.5c-1.7,0-4.8,1.6-6.4,2.7c-0.6-0.5-1.1-0.6-1.6-0.6c-1.5,0-2.9,1.4-4.1,2.6c-0.4,0.4-0.8,0.8-1,1
					c-0.8,0.7-2.5,1.3-3.6,1.3c-0.4,0-0.6-0.1-0.6-0.1s-0.1,0-0.1-0.1c-0.3-1.7,0.8-2.9,3.2-3.6c1.8-0.5,2.8-1.2,3.1-2.1
					c0-0.1,0-0.1,0-0.2c1.1-0.5,3.1-1.7,3.9-2.5c0.2-0.2,0.3-0.3,0.5-0.5c0.6-0.7,1.2-1.3,2.9-2.2c0.4-0.2,0.9-0.3,1.4-0.4
					c0.8-0.2,1.8-0.4,2.5-1.1c0.3-0.2,1.3-0.8,2-1.3c0.4-0.2,0.7-0.4,1-0.6c0.4-0.2,0.8-0.5,0.8-1c0-0.3-0.1-0.6-0.4-0.8
					c-0.1-0.1-0.2-0.1-0.3-0.2c1.2-0.8,1.8-1.3,2.1-1.7c0.2-0.3,0.2-0.6,0.1-0.9C126.4,19.8,126.1,19.6,125.8,19.6
					C125.8,19.6,125.8,19.6,125.8,19.6C125.8,19.6,125.8,19.6,125.8,19.6L125.8,19.6z M123.8,54.8c0.1,0,0.2,0,0.3,0
					c0.7-0.1,2-0.3,3.4-1.5c0.1-0.1,0.2-0.2,0.4-0.3c0,0,0,0,0,0c0,0,0,0,0,0c-0.4,0.6-0.6,1.1-0.4,1.6c-0.3,0.1-0.7,0.4-1.2,0.8
					c0,0,0,0-0.1,0.1c-0.6,0.7-1.1,1-1.5,1.2l-0.1,0c-0.3,0.2-0.7,0.5-1.2,0.8c-0.2,0.2-0.4,0.3-0.7,0.5c0-0.1-0.1-0.2-0.1-0.3
					c-0.1-0.2-0.3-0.4-0.4-0.6C122.9,56.5,123.7,55.6,123.8,54.8L123.8,54.8z"/>
			</g>
			<path class="st7" d="M129.4,17.6"/>
		</g>
	</g>
</g>
</svg>
